<?xml version="1.0" standalone="no"?>
<!DOCTYPE svg PUBLIC "-//W3C//DTD SVG 20010904//EN"
 "http://www.w3.org/TR/2001/REC-SVG-20010904/DTD/svg10.dtd">
<svg version="1.0" xmlns="http://www.w3.org/2000/svg"
 width="405.000000pt" height="95.000000pt" viewBox="0 0 405.000000 95.000000"
 preserveAspectRatio="xMidYMid meet">

<g transform="translate(0.000000,95.000000) scale(0.100000,-0.100000)"
fill="#000000" stroke="none">
<path d="M160 891 c0 -23 160 -26 167 -3 4 9 -17 12 -81 12 -47 0 -86 -4 -86
-9z"/>
<path d="M410 892 c0 -6 17 -14 38 -17 67 -12 124 -34 167 -67 88 -67 125
-154 125 -289 0 -111 -11 -152 -59 -215 -48 -63 -115 -97 -204 -102 -61 -4
-75 -1 -133 28 -98 48 -152 131 -153 235 -1 98 57 173 149 194 67 15 115 1
182 -52 25 -20 48 -80 48 -126 0 -79 -33 -111 -114 -111 -50 0 -93 34 -98 78
-4 33 -28 42 -28 10 0 -64 94 -137 157 -122 70 17 113 73 113 146 -1 203 -271
285 -396 120 -87 -113 -33 -303 110 -391 56 -34 64 -36 145 -36 69 0 95 4 132
23 141 69 207 234 169 424 -21 106 -101 208 -199 250 -55 23 -151 36 -151 20z"/>
<path d="M317 769 c-96 -23 -184 -99 -218 -188 -17 -47 -20 -74 -17 -171 3
-99 7 -122 28 -165 55 -110 177 -195 280 -195 61 0 48 15 -25 29 -36 7 -82 24
-103 38 -126 84 -166 180 -151 365 6 75 11 95 39 138 140 219 464 144 506
-116 28 -179 -190 -294 -325 -171 -28 26 -60 92 -61 124 0 40 30 100 56 112
65 29 145 -6 162 -72 10 -37 32 -48 32 -15 0 33 -35 85 -72 108 -97 59 -218
-26 -202 -140 14 -93 66 -157 153 -186 67 -21 127 -12 188 29 177 119 96 413
-131 473 -57 15 -84 16 -139 3z"/>
<path d="M1730 624 c-14 -37 -12 -66 10 -157 40 -161 82 -235 115 -207 24 20
39 54 78 175 45 139 53 181 37 200 -24 28 -55 -16 -95 -134 -12 -36 -26 -66
-32 -68 -5 -2 -18 33 -28 77 -18 81 -46 140 -65 140 -6 0 -15 -12 -20 -26z"/>
<path d="M2368 629 l-46 -21 -7 -85 c-10 -114 0 -262 18 -280 23 -23 45 -5 56
48 6 28 11 59 11 70 0 13 9 21 28 25 37 7 90 58 109 101 18 45 8 95 -27 133
-34 36 -74 39 -142 9z m92 -84 c17 -20 3 -53 -29 -70 -28 -14 -29 -14 -35 23
-4 28 -2 40 11 50 22 16 38 15 53 -3z"/>
<path d="M2650 634 c-72 -25 -71 -23 -73 -200 -2 -162 6 -204 37 -204 16 0 36
50 36 90 0 27 15 40 45 40 8 0 19 -18 26 -39 6 -21 22 -52 34 -67 20 -25 25
-27 40 -14 21 18 14 76 -17 131 l-21 38 27 31 c49 59 48 136 -4 183 -35 31
-64 33 -130 11z m83 -97 c6 -15 -21 -77 -33 -77 -5 0 -15 -2 -23 -6 -20 -7
-34 75 -15 88 20 12 65 9 71 -5z"/>
<path d="M2977 639 c-104 -25 -120 -55 -119 -239 0 -114 1 -115 29 -137 33
-27 61 -24 136 14 54 27 67 47 44 70 -13 14 -20 14 -68 0 -59 -18 -56 -18 -59
3 -5 36 1 49 30 55 39 9 80 42 80 66 0 27 -24 34 -68 21 -42 -13 -52 -9 -45
18 4 14 28 31 70 50 59 27 64 32 61 57 -3 32 -27 38 -91 22z"/>
<path d="M3185 635 c-63 -22 -65 -30 -65 -206 0 -140 2 -159 19 -180 19 -23
21 -23 37 -7 11 11 19 38 22 73 4 54 5 56 48 74 60 27 104 90 104 149 0 37 -6
50 -34 78 -38 38 -66 42 -131 19z m83 -103 c4 -26 -19 -57 -49 -65 -17 -4 -19
0 -19 38 0 45 9 55 45 52 13 -1 21 -11 23 -25z"/>
<path d="M1130 597 c-28 -63 -45 -216 -30 -277 28 -116 76 -82 83 60 1 25 6
43 12 41 6 -3 22 -31 36 -63 28 -65 64 -108 89 -108 41 0 76 134 67 261 -5 81
-27 134 -50 126 -21 -6 -36 -69 -36 -150 -1 -45 -5 -76 -10 -72 -5 3 -19 36
-32 73 -50 154 -93 191 -129 109z"/>
<path d="M1505 609 c-54 -48 -80 -164 -58 -269 8 -43 74 -110 108 -110 45 0
82 27 106 77 33 66 33 197 1 260 -41 79 -97 94 -157 42z m92 -109 c16 -32 16
-118 0 -150 -7 -14 -21 -25 -32 -25 -30 0 -46 42 -43 111 5 90 45 124 75 64z"/>
<path d="M2101 624 c-31 -22 -70 -112 -87 -202 -18 -94 -18 -133 0 -158 15
-19 15 -19 36 2 12 12 25 37 29 55 6 30 11 35 46 40 50 9 55 5 55 -35 0 -19 9
-44 20 -57 l20 -24 20 24 c23 27 26 83 9 177 -16 94 -38 152 -66 174 -31 24
-51 25 -82 4z m60 -101 c5 -15 9 -41 7 -57 -3 -28 -6 -31 -38 -31 -33 0 -35 2
-32 30 8 77 43 110 63 58z"/>
<path d="M3612 624 c-67 -46 -129 -304 -88 -360 15 -19 15 -19 36 2 12 12 25
37 29 55 6 30 11 35 46 40 45 8 55 -1 55 -44 0 -62 35 -86 64 -45 39 56 -5
303 -61 348 -31 24 -51 25 -81 4z m59 -101 c17 -45 8 -87 -19 -91 -44 -6 -51
3 -41 50 5 24 12 49 14 56 8 22 35 13 46 -15z"/>
<path d="M3854 629 c-43 -12 -61 -34 -44 -54 7 -8 21 -15 31 -15 17 0 19 -8
19 -72 0 -129 -9 -174 -37 -187 -17 -8 -23 -18 -21 -34 3 -19 9 -22 53 -22 94
1 146 42 94 76 -19 13 -20 20 -13 131 6 108 8 117 30 129 70 37 -19 75 -112
48z"/>
<path d="M523 58 c2 -9 27 -13 77 -13 50 0 75 4 78 13 3 9 -17 12 -78 12 -61
0 -81 -3 -77 -12z"/>
</g>
</svg>
